<?xml version="1.0" encoding="utf-8"?>
<!-- Generator: Adobe Illustrator 24.0.2, SVG Export Plug-In . SVG Version: 6.00 Build 0)  -->
<svg version="1.1" id="Capa_2" xmlns="http://www.w3.org/2000/svg" xmlns:xlink="http://www.w3.org/1999/xlink" x="0px" y="0px"
	 viewBox="0 0 157.8 134.4" style="enable-background:new 0 0 157.8 134.4;" xml:space="preserve">
<style type="text/css">
	.st0{fill:#788D17;stroke:#788D17;stroke-miterlimit:10;}
</style>
<path class="st0" d="M86.7,12.1c0.7-0.4,1.8-0.8,3.2-1.1c2.2-0.4,4-0.1,5.4,0.2c2,0.4,3,0.6,4,1.4c1.2,1.1,1.6,2.6,1.8,3.4
	c0.6,2.2,0.1,3.2,0.7,3.6c0.8,0.5,2.6-0.3,3.2-1.6c0.8-1.6-0.3-3.6-1.1-4.9c-0.4-0.7-1.7-2.9-4.5-4.1c-2.8-1.3-5.4-0.9-6.3-0.7
	C89.6,9,87.4,11.3,86.7,12.1z"/>
<path class="st0" d="M81.7,14.6c-0.9-0.7-2.3-1.7-4-2.9c-4-2.9-4.2-3.2-5.2-3.8c-3.6-2-7.3-2-8.3-2C60,6,57,7.7,55.2,8.7
	c-1.7,0.9-3.9,2.2-5.8,4.7c0,0-2.2,3-3.4,8.3c-0.2,0.9-0.3,1.4-0.3,1.4c-0.2,1.3,0,1.6-0.3,1.8c-0.6,0.5-2.6-1.3-5-2.5
	c-2.1-1-3.8-1.2-6.3-1.4c-1.8-0.2-6.1-0.4-11.3,1.3c-2.9,0.9-6.2,2-9,5c-2.9,3.1-4,5.6-4,5.6c-0.8,1.9-0.9,3.2-2.2,3.8
	c-1.3,0.6-2.9,0.1-4-0.2c-1-0.3-1.5-0.5-1.8-0.9c-0.5-1,0.6-2.4,2.7-5.2c3.8-5.1,3-4.5,4.1-5.8c1.1-1.3,3.2-3.5,6.5-5.4
	c3.1-1.8,5.8-2.5,7.6-2.9c2.5-0.6,6.3-1.4,10.8-0.5c1.8,0.4,3.3,0.7,5,1.6c2,1.1,2.9,2.3,3.6,2c0.8-0.4,0.2-2.3,0.5-4.7
	c0.5-2.9,2.2-4.7,4.7-7.4c2.3-2.4,4.4-4.7,8.1-5.9c3.5-1.2,6.6-0.8,9.4-0.4c2.4,0.3,5.1,0.7,7.9,2.5c2.7,1.7,4.2,3.8,5.8,5.9
	C80.1,11.4,81.1,13.2,81.7,14.6z"/>
<path class="st0" d="M5.4,45c1.3-1.7,0.3-3.1,1.4-5.4c0.9-1.8,2.4-2.8,3.4-3.4c0.6-0.4,2.1-1.2,7-2c4.4-0.7,3.9-0.1,8.8-0.7
	c3.2-0.4,4.6-0.8,6.3,0c1.3,0.6,2,1.5,3.1,2.7c0.7,0.9,2.3,2.7,3.1,5.2c0.3,1,0.3,1.4-0.2,8.3c-0.4,5.3-0.4,6.2-0.9,7.6
	c-0.7,2.2-1.6,3.5-1.3,3.8c0.5,0.4,2.8-1.7,4.1-3.1c1.5-1.6,3.2-3.3,4.1-5.9c0.7-1.9,0.7-4,0.7-8.1c0-4.4-0.3-6.3,0.5-6.7
	c0.7-0.3,1.3,0.9,4.1,2.3c2.5,1.3,3,0.9,3.8,1.8c0.8,1.1,0.4,2,0.7,5.9c0.1,1.9,0.3,2.4,0.4,3.4c0.5,6.5-3.1,11.9-2.2,12.4
	c0.7,0.4,3.6-2.4,5.4-5.6c1.5-2.7,1.9-5.2,2.3-7.6c0.5-2.8,0.7-4.2,0.5-5.9c-0.2-1.8-0.7-2.8-0.1-3.4c0.8-0.8,1.8-0.6,4-1.2
	c1.7-0.5,2.3-0.5,3.2-0.4c0.7,0.1,1.6,0.8,2.9,4.9c1,3.2,1.5,4.9,1.6,8.1c0.3,7.8-2.3,12.6-1.4,13c0.7,0.3,3.1-2.8,4.5-6.3
	c2-4.9,1.4-9.6,1.1-11.9c-0.3-2.7-1.2-5.3-1.2-5.5c-0.3-1-0.5-1.4-0.8-2.1c-0.6-1.4-1-1.5-0.9-2c0.1-0.8,1.2-1,3.4-2.3
	c1.8-1.1,1.7-1.4,2.2-1.4c2.3-0.4,5.7,4.8,7.6,10.3c2.7,7.9,1.5,13.7,2.5,13.9c1,0.1,2.8-4.8,3.1-9.5c0,0,0.4-6.3-2.5-11.7
	c-0.6-1.1-0.9-1.7-1.6-2.6c-1.4-1.7-2.6-2-2.5-2.8c0-0.9,1.3-1.5,2.9-2.2c1.8-0.8,2.7-1.3,3.8-1.2c1.4,0.1,2.6,0.9,7,6.8
	c2,2.7,3,4,3.2,4.5c3.1,6.1,1,12.3,1.8,12.4c0.6,0.1,2.2-3.7,2.7-7.6c0.6-4.3-0.4-7.6-0.7-8.8c-0.3-1-0.9-2.7-2.2-4.7
	c-1.7-2.8-3.9-3.2-3.8-4.5c0.1-1.1,1.6-1.8,3.4-2.6c1.3-0.6,2.9-1.4,4.5-1.3c5.5,0.1,9.3,9.4,10.3,12c1.3,3.3,1.1,5.5,1.7,5.5
	c0.9,0,2.1-5,1.4-9.7c-0.2-1.5-0.5-3.3-1.6-5.4c-1.6-3-3.6-3.9-3.3-5c0.2-0.5,0.8-1.1,5.4-1.6c4.7-0.6,7-0.8,9.5-0.4
	c0.8,0.1,4.1,0.8,7.7,3.2c1.9,1.2,3.7,2.5,4.9,4.9c0.8,1.5,0.9,2.8,1.1,4.3c0.2,1.3,0.5,4.7-0.7,8.5c-1,3-2.6,5.3-5,7.9
	c-4.1,4.3-8.3,6.8-16,10.8c-9.1,4.7-13.7,7.1-18.7,9c-8.7,3.3-15.5,4.7-20.5,5.8c-3.9,0.8-10.3,2.1-18.9,2.7
	c-5.3,0.4-12.4,0.8-21.6-0.4c-8.1-1-13.5-2.8-18.9-4.5c-4.6-1.5-7.7-2.8-10.8-5.2c-2.4-1.9-4.4-3.5-5.8-6.3c-1.8-3.8-1-6.7-3.4-8.3
	c-1.1-0.7-2.9-1.1-3.6-0.4c-1.7,1.6,2.4,8.4,3.6,10.3c1.1,1.7,2.8,4.5,5.9,7.4c2.7,2.5,5.2,3.8,7.7,5.2c3.7,2,7,3.2,9.4,4
	c2,0.7,9.9,3.1,25.6,4.1c8.7,0.6,13.4,0.9,20.2,0.2c4-0.4,8.5-1.4,17.5-3.2c6.8-1.4,10.3-2.1,13.3-3.1c5.5-1.6,11.2-3.3,17.5-7.4
	c2.1-1.4,5.2-3.9,11.2-9c1-0.8,4.5-3.8,7.4-7c1.8-2,3.4-4,3.4-4c1.4-1.9,1.3-1.9,1.7-2.3c2.9-2.8,7.8,0.7,10.3-1.3
	c2.7-2.2,0.6-9.7-2-14.2c-2.3-4.1-5.4-6.5-8.1-8.6c-2.3-1.8-5-3.9-9-5.2c-4-1.3-7.3-1.2-12.1-1.1c-5.5,0.2-9.7,1.1-11.7,1.6
	c-0.9,0.2-2.8,0.7-10.8,3.8c-5.2,2-7.8,2.9-9.2,3.6c-6.4,3.1-6,4.5-11.9,7c-3,1.3-4.4,1.5-7.7,3.2c-2,1-2.7,1.6-4.7,2.3
	c-1.8,0.6-2.6,0.7-4.5,1.6c-1.4,0.7-1.4,0.8-2.7,1.4c-1.7,0.8-2.8,1.3-4.1,1.3c-1.3,0-1.6-0.5-4.5-1.6c-1.7-0.7-1.7-0.6-4-1.4
	c-3.4-1.3-5.2-2.2-6.8-2.9c-4.1-1.7-7.7-2.3-10.1-2.7c0,0-10.1-1.6-22.3,1.6c-1.9,0.5-2.1,0.8-4.6,1.4c-1.9,0.5-2.7,0.5-3.3,1.3
	c-0.7,0.8-0.6,1.8-0.5,3.8c0.1,5.2-1,7,0,7.6C2.3,47.4,4.3,46.4,5.4,45z"/>
<path class="st0" d="M1.4,37.8C0,38.4,0.5,44.5,1.2,50.9c0.3,2.4,2.5,4.7,1.6,4.4s2-0.6,2.5-1c0.6-0.4,1.2-0.1,1.4-1.1
	c0.3-1.3-0.4-0.8-0.5-2.7c-0.1-1.4-0.1-4.6-0.5-6.3C5.3,42,2.6,37.3,1.4,37.8z"/>
<path class="st0" d="M148.3,43.2c-0.5,1,0.1,1.9,0.5,3.4c0.6,2.3,0.2,4.1-0.5,7.4c-1.4,6.4-7.9,12.9-11.7,16.7
	c-4.6,4.5-7.7,7.7-13,10.8c-9.4,5.5-17.6,6.2-17.5,7c0.2,0.8,10-0.5,12.8-0.9c6.9-1,10.4-1.5,13.5-3.1c4-2.1,6.4-4.8,9-7.7
	c4.4-5,6.6-9.6,8.6-13.9c0,0,3.7-7.6,5.9-16.9c0.2-0.8,0.2-1.2,0.6-2.5c0.4-1.5,0.7-1.9,0.4-2.2c-0.5-0.9-2.7-0.5-3.9-0.3
	C151.1,41.4,149,41.7,148.3,43.2z"/>
<path class="st0" d="M41.3,78.8c1.4,1.7,0.8,2,2.6,4.5c0.9,1.3,2,2.5,9.4,7.7c6.5,4.6,8.5,5.7,10.8,6.5c1.4,0.5,2.5,0.8,2.5,0.9
	c-0.1,0.3-6.1-0.2-12.4-2.5c-4-1.5-6.7-3.3-10.8-5.9c-1-0.7-4.2-2.8-8.1-6c-1.4-1.1-2-1.7-2-1.7c-1-0.9-1-1-1.1-1
	c-1.3,0.2-0.8,13.6-0.4,29.1c0.1,2.9,0.1,4.3,0.1,4.3c-0.1,1-0.2,1.6,0.1,1.8c0.7,0.5,2.6-1.5,4-2.3c1.8-1.2,5.2-2.2,18,2.5
	c3.9,1.4,7.3,2.9,14.2,5.9c5.4,2.4,8.8,3.9,13.9,4.5c3.4,0.4,6.7-0.9,7,0c0.2,0.6-6.3,1.8-7.4,1.6c-7.8-1.4-2.6,0-10.1-2
	c-5.9-1.6-10.8-3-20.9-5c-2-0.4-6.7-1.3-11.5-0.7c-2.6,0.3-5.5,1.1-7.1,1.6c-1.3,0.5-2.4,1-2.4,1c-1.4,0.7-1.5,0.8-1.7,0.8
	c-2.3-0.2-2.3-24-2.5-40.9c-0.1-7.2-0.1-7.2-0.1-7.4c-0.1-0.7-0.2-1,0-1.4C26.5,72.6,36.6,73.2,41.3,78.8z"/>
<path class="st0" d="M129.4,85.8c0.2,5.1,0.4,10.3,0.5,15.6c0.1,6.6-0.7,13.2,0,19.7c0.2,1.5,0.4,3.3-0.7,4.8
	c-1.1,1.5-3.1,1.9-11.5,1.9c-6.5,0-9.9,0-11.8-0.7c-4.4-1.7-7-4.8-8.4-6.5c-1.1-1.3-3.2-3.8-4.3-7.7c-0.8-2.8-1.5-5.1-0.5-7.2
	c1.4-3,4.5-2.4,7-5.8c1-1.4,1.3-3,1.9-6.2c0.2-1,0.7-4.1,0.5-12c-0.1-3.5,0.9-6.3-0.3-6.9c-0.6-0.4-1.8-0.1-2.2,0
	c-0.5,0.1-1.4,0.3-2,1c-0.7,0.8-0.6,1.9-0.6,2.4c0.2,3.7,0,7.4,0,11c0,2,0.3,2.7,0,4.3c-0.2,0.9-1.5,1.3-2.3,1.1
	c-0.4-0.1-1.6-0.8-1.4-4.6c0.1-3.8-0.2-7.2,0.1-10.8c0.1-0.8,0.1-1.1,0.1-1.2c0.1-1,0.3-1.2,0.1-1.4c-0.3-0.3-1.1-0.1-1.9,0.2
	C91.3,76.9,91,77,91,77c-0.7,0.2-0.7,0.3-0.8,0.3c-0.3,0.3-0.1,0.9-0.1,1.1c0.2,0.7,0.1,4.4-0.1,11.9c0,1.7-0.1,1.6-0.1,2.4
	c0,0.5,0.1,0.8-0.1,1.2c-0.1,0.2-0.4,1.2-1.4,1.4c-0.4,0.1-0.8-0.1-0.8-0.1c-0.1,0-0.3-0.1-0.5-0.3c0,0-0.2-0.2-0.4-0.5
	c-0.8-1.2-0.2-13.3-0.2-13.3c0-0.8,0-1.1,0.1-2.3c0.1-1,0.2-1.3,0-1.5c-0.3-0.3-0.9-0.3-1.6-0.2c-0.3,0-0.5,0.1-0.9,0.2
	c-0.5,0.1-0.6,0.2-0.6,0.3c-0.3,0.3-0.1,1-0.1,1.1c0.2,0.7,0.2,4.4,0.1,11.8c0,0.4,0.4,1.5-0.1,2.7c-0.1,0.4-0.5,1.4-1.4,1.6
	c-0.5,0.1-1.1,0.1-1.5-0.3c-0.7-0.6-0.6-1.7-0.5-2.3c0-0.1,0-3.5,0-10.4c0-1.3,0.6-2.5-0.1-3.1c-0.6-0.6-1.6-0.5-2.4-0.4
	c-1,0.1-2.2,0-2.8,0.8c-0.4,0.5-0.4,1.1-0.4,1.4c0.2,6.5,0.4,9.8,0.5,11c0.1,1.4,0.1,2.7,0.1,2.7c0,0.7,0,1.1,0,1.3
	c0.1,2.4,3,5.2,4,6.1c0,0,2.1,2,5.1,3.6c0.5,0.3,1,0.5,1,0.5c0.5,0.3,0.8,0.4,0.9,0.4c0.9,0.5,0.4,3,0.4,4.2c-0.2,2.8,1,4.9,2.3,7.4
	c0.7,1.3,1.7,2.5,3.6,4.8c1.8,2.2,2.8,3.4,4.4,4.8c1,0.9,2.8,2.4,5.5,3.8c0.6,0.3,3.1,1.5,7.1,2.3c3.3,0.6,6.2,0.5,11.9,0.3
	c2-0.1,4.6-0.2,9.7-0.6c1.3-0.1,2.5-0.2,2.5-0.2c0.7,0,1-0.1,1-0.1c2.5-0.5,1.1-23.6,0.6-37.4c0-0.4-0.1-2.2-0.1-4.3
	c0-0.6,0-0.8,0-0.9c0-2.6,2-4.7,2.9-5.8c1.2-1.4,2.6-3.7,3.5-7.2"/>
</svg>
