<?xml version="1.0" standalone="no"?>
<!DOCTYPE svg PUBLIC "-//W3C//DTD SVG 20010904//EN"
 "http://www.w3.org/TR/2001/REC-SVG-20010904/DTD/svg10.dtd">
<svg version="1.0" xmlns="http://www.w3.org/2000/svg"
 width="153.000000pt" height="134.000000pt" viewBox="0 0 153.000000 134.000000"
 preserveAspectRatio="xMidYMid meet">

<g transform="translate(0.000000,134.000000) scale(0.100000,-0.100000)"
fill="#000000" stroke="none">
<path d="M578 1230 c-57 -17 -97 -51 -120 -100 -19 -41 -27 -49 -43 -44 -11 3
-50 8 -87 11 -83 6 -141 -18 -192 -80 -104 -128 -74 -287 74 -385 85 -57 93
-80 92 -267 -1 -77 1 -155 4 -173 5 -29 8 -33 27 -28 103 30 137 27 417 -38
70 -17 118 -20 106 -9 -4 4 -33 13 -66 19 -32 7 -93 28 -136 47 -127 55 -243
74 -294 47 -14 -7 -19 -6 -22 8 -4 18 12 274 18 281 2 2 35 -18 75 -44 72 -47
168 -95 192 -95 7 0 -14 15 -46 33 -51 29 -154 114 -145 122 2 1 32 -1 68 -6
36 -4 102 -5 148 -2 l82 6 0 -57 c0 -72 21 -122 60 -144 17 -9 33 -28 36 -42
23 -101 84 -174 169 -203 61 -21 94 -21 183 -1 l70 16 -2 172 c-1 170 -1 172
27 226 16 30 44 79 64 108 19 29 49 83 66 120 27 59 31 78 32 154 0 80 -2 89
-30 129 -39 55 -122 99 -202 106 -55 5 -78 1 -195 -33 -12 -4 -18 0 -18 11 0
9 -13 30 -29 46 -30 30 -72 38 -101 19 -11 -7 -5 -10 23 -10 73 0 107 -76 45
-100 -18 -7 -97 -44 -176 -83 -95 -47 -154 -70 -175 -69 -18 1 -68 16 -112 33
-89 35 -204 48 -268 31 -45 -13 -47 -4 -5 37 61 59 182 77 244 36 31 -20 31
-20 37 20 12 72 87 135 162 135 41 0 111 -34 125 -60 6 -12 14 -19 17 -16 14
14 -42 77 -89 100 -55 28 -67 29 -110 16z m703 -160 c20 -11 43 -30 52 -44 21
-31 22 -98 2 -135 -42 -82 -212 -183 -410 -244 -134 -41 -203 -52 -340 -51
-106 1 -148 6 -227 27 -125 34 -171 58 -208 108 -36 50 -46 96 -30 144 15 45
62 70 150 79 86 8 109 -4 134 -72 18 -50 18 -57 3 -110 -9 -31 -14 -58 -12
-60 1 -2 15 12 29 31 17 22 31 59 38 98 6 35 12 65 14 67 1 2 18 -4 39 -12
l36 -16 -3 -82 c-2 -46 -8 -92 -13 -102 -6 -14 -5 -17 3 -12 23 14 54 89 59
142 5 47 9 54 34 63 21 7 30 6 42 -7 26 -29 37 -93 28 -152 -5 -30 -7 -57 -5
-59 2 -2 13 16 24 40 24 53 26 129 4 171 -15 30 -15 32 2 45 24 18 48 16 67
-4 23 -26 57 -119 57 -156 1 -27 2 -29 11 -14 5 9 10 44 10 78 1 49 -4 68 -26
101 -15 22 -25 41 -23 43 26 21 51 25 74 10 36 -23 84 -94 85 -124 0 -14 4
-35 9 -46 6 -14 9 -3 9 41 1 46 -5 72 -25 113 -29 57 -27 64 24 77 29 8 82
-40 118 -106 l24 -45 -6 55 c-3 30 -13 70 -21 88 -9 19 -12 37 -7 42 26 24
117 19 175 -10z m99 -244 c0 -55 -33 -117 -103 -192 -60 -64 -85 -82 -171
-125 -92 -45 -97 -48 -56 -43 25 4 67 13 95 20 27 7 53 10 57 8 5 -3 8 -81 8
-174 0 -193 3 -186 -90 -197 -74 -9 -132 12 -190 66 -45 42 -50 51 -50 90 0
35 5 47 30 67 36 31 50 77 50 171 l0 71 38 12 c20 7 77 33 125 58 68 36 105
63 163 124 75 78 94 87 94 44z m-462 -328 c-2 -46 -7 -73 -15 -76 -10 -3 -13
16 -13 72 0 62 3 76 15 76 13 0 15 -12 13 -72z m-58 3 c0 -62 -6 -91 -20 -91
-14 0 -22 57 -15 105 5 28 12 45 21 45 10 0 14 -15 14 -59z m-62 -13 c-2 -38
-8 -63 -15 -66 -10 -3 -13 13 -13 56 0 32 3 62 7 65 17 18 24 2 21 -55z"/>
</g>
</svg>
